<svg width="32" height="32" viewBox="0 0 32 32" xmlns="http://www.w3.org/2000/svg">
  <defs>
    <linearGradient id="shieldGradientFavicon" x1="0%" y1="0%" x2="100%" y2="100%">
      <stop offset="0%" style="stop-color:#6366f1;stop-opacity:1" />
      <stop offset="100%" style="stop-color:#1d4ed8;stop-opacity:1" />
    </linearGradient>
  </defs>
  
  <!-- Shield Background -->
  <path d="M16 3 L25 7 L25 19 Q25 23 22 26 Q19 29 16 29 Q13 29 10 26 Q7 23 7 19 L7 7 Z" 
        fill="url(#shieldGradientFavicon)"/>
  
  <!-- Letter P with integrated eye -->
  <!-- P vertical line -->
  <path d="M11 10 L11 23" 
        fill="none" 
        stroke="#ffffff" 
        stroke-width="1.8" 
        stroke-linecap="round"/>
  
  <!-- P outline -->
  <path d="M11 10 L18 10 Q20 10 21 12 Q22 14 22 16 Q22 18 21 20 Q20 22 18 22 L11 22" 
        fill="none" 
        stroke="#ffffff" 
        stroke-width="1.8" 
        stroke-linecap="round" 
        stroke-linejoin="round"/>
  
  <!-- P middle horizontal (partial) -->
  <path d="M11 16 L14 16" 
        fill="none" 
        stroke="#ffffff" 
        stroke-width="1.8" 
        stroke-linecap="round"/>
  
  <!-- Eye integrated inside P -->
  <ellipse cx="17" cy="13" rx="2.5" ry="1.8" fill="#ffffff"/>
  <ellipse cx="17" cy="13" rx="1.6" ry="1.2" fill="#3b82f6"/>
  <ellipse cx="17" cy="13" rx="0.8" ry="0.7" fill="#1e293b"/>
  <ellipse cx="16.6" cy="12.7" rx="0.3" ry="0.25" fill="#ffffff" opacity="0.9"/>
</svg>